<mxfile host="app.diagrams.net" modified="2024-04-05T16:27:47.592Z" agent="Mozilla/5.0 (Windows NT 10.0; Win64; x64) AppleWebKit/537.36 (KHTML, like Gecko) Chrome/123.0.0.0 Safari/537.36" etag="7rvKCPJEKEBjEYlMeSsB" version="24.0.4" type="device">
  <diagram name="Strona-1" id="CXt4meFhH8Pr3ymxUFNq">
    <mxGraphModel dx="1433" dy="627" grid="0" gridSize="10" guides="1" tooltips="1" connect="1" arrows="1" fold="1" page="1" pageScale="1" pageWidth="1169" pageHeight="827" background="#FFFFFF" math="0" shadow="0">
      <root>
        <mxCell id="0" />
        <mxCell id="1" parent="0" />
        <mxCell id="hE-Ajq_DNDgBt4DahEjz-3" value="&lt;i&gt;&lt;font style=&quot;font-size: 14px;&quot; face=&quot;Times New Roman&quot;&gt;sender&lt;/font&gt;&lt;/i&gt;" style="shape=hexagon;perimeter=hexagonPerimeter2;whiteSpace=wrap;html=1;fixedSize=1;" vertex="1" parent="1">
          <mxGeometry x="221" y="254" width="120" height="80" as="geometry" />
        </mxCell>
        <mxCell id="hE-Ajq_DNDgBt4DahEjz-19" style="edgeStyle=orthogonalEdgeStyle;rounded=0;orthogonalLoop=1;jettySize=auto;html=1;entryX=0;entryY=0.5;entryDx=0;entryDy=0;" edge="1" parent="1" source="hE-Ajq_DNDgBt4DahEjz-4" target="hE-Ajq_DNDgBt4DahEjz-17">
          <mxGeometry relative="1" as="geometry" />
        </mxCell>
        <mxCell id="hE-Ajq_DNDgBt4DahEjz-4" value="&lt;i&gt;&lt;font style=&quot;font-size: 14px;&quot; face=&quot;Times New Roman&quot;&gt;subject&lt;/font&gt;&lt;/i&gt;" style="shape=hexagon;perimeter=hexagonPerimeter2;whiteSpace=wrap;html=1;fixedSize=1;" vertex="1" parent="1">
          <mxGeometry x="221" y="374" width="120" height="80" as="geometry" />
        </mxCell>
        <mxCell id="hE-Ajq_DNDgBt4DahEjz-18" value="" style="edgeStyle=orthogonalEdgeStyle;rounded=0;orthogonalLoop=1;jettySize=auto;html=1;" edge="1" parent="1" source="hE-Ajq_DNDgBt4DahEjz-5" target="hE-Ajq_DNDgBt4DahEjz-17">
          <mxGeometry relative="1" as="geometry" />
        </mxCell>
        <mxCell id="hE-Ajq_DNDgBt4DahEjz-5" value="&lt;i&gt;&lt;font style=&quot;font-size: 14px;&quot; face=&quot;Times New Roman&quot;&gt;body&lt;/font&gt;&lt;/i&gt;" style="shape=hexagon;perimeter=hexagonPerimeter2;whiteSpace=wrap;html=1;fixedSize=1;" vertex="1" parent="1">
          <mxGeometry x="221" y="494" width="120" height="80" as="geometry" />
        </mxCell>
        <mxCell id="hE-Ajq_DNDgBt4DahEjz-13" style="edgeStyle=orthogonalEdgeStyle;rounded=0;orthogonalLoop=1;jettySize=auto;html=1;entryX=0;entryY=0.5;entryDx=0;entryDy=0;" edge="1" parent="1" source="hE-Ajq_DNDgBt4DahEjz-12" target="hE-Ajq_DNDgBt4DahEjz-4">
          <mxGeometry relative="1" as="geometry">
            <Array as="points">
              <mxPoint x="195" y="414" />
              <mxPoint x="195" y="414" />
            </Array>
          </mxGeometry>
        </mxCell>
        <mxCell id="hE-Ajq_DNDgBt4DahEjz-14" style="edgeStyle=orthogonalEdgeStyle;rounded=0;orthogonalLoop=1;jettySize=auto;html=1;entryX=0;entryY=0.5;entryDx=0;entryDy=0;" edge="1" parent="1" source="hE-Ajq_DNDgBt4DahEjz-12" target="hE-Ajq_DNDgBt4DahEjz-5">
          <mxGeometry relative="1" as="geometry" />
        </mxCell>
        <mxCell id="hE-Ajq_DNDgBt4DahEjz-16" style="edgeStyle=orthogonalEdgeStyle;rounded=0;orthogonalLoop=1;jettySize=auto;html=1;entryX=0;entryY=0.5;entryDx=0;entryDy=0;" edge="1" parent="1" source="hE-Ajq_DNDgBt4DahEjz-12" target="hE-Ajq_DNDgBt4DahEjz-3">
          <mxGeometry relative="1" as="geometry" />
        </mxCell>
        <mxCell id="hE-Ajq_DNDgBt4DahEjz-12" value="&lt;font style=&quot;font-size: 14px;&quot; face=&quot;Times New Roman&quot;&gt;Email.json&lt;/font&gt;" style="shape=note;whiteSpace=wrap;html=1;backgroundOutline=1;darkOpacity=0.05;" vertex="1" parent="1">
          <mxGeometry x="82" y="364" width="80" height="100" as="geometry" />
        </mxCell>
        <mxCell id="hE-Ajq_DNDgBt4DahEjz-22" value="" style="edgeStyle=orthogonalEdgeStyle;rounded=0;orthogonalLoop=1;jettySize=auto;html=1;" edge="1" parent="1" source="hE-Ajq_DNDgBt4DahEjz-17" target="hE-Ajq_DNDgBt4DahEjz-21">
          <mxGeometry relative="1" as="geometry" />
        </mxCell>
        <mxCell id="hE-Ajq_DNDgBt4DahEjz-36" style="edgeStyle=orthogonalEdgeStyle;rounded=0;orthogonalLoop=1;jettySize=auto;html=1;entryX=0;entryY=0.5;entryDx=0;entryDy=0;" edge="1" parent="1" source="hE-Ajq_DNDgBt4DahEjz-17" target="hE-Ajq_DNDgBt4DahEjz-26">
          <mxGeometry relative="1" as="geometry">
            <Array as="points">
              <mxPoint x="468" y="317" />
            </Array>
          </mxGeometry>
        </mxCell>
        <mxCell id="hE-Ajq_DNDgBt4DahEjz-17" value="&lt;i&gt;&lt;font style=&quot;font-size: 14px;&quot; face=&quot;Times New Roman&quot;&gt;email&lt;/font&gt;&lt;/i&gt;" style="shape=hexagon;perimeter=hexagonPerimeter2;whiteSpace=wrap;html=1;fixedSize=1;" vertex="1" parent="1">
          <mxGeometry x="408" y="437" width="120" height="80" as="geometry" />
        </mxCell>
        <mxCell id="hE-Ajq_DNDgBt4DahEjz-20" value="" style="shape=cross;whiteSpace=wrap;html=1;size=0.27777535574777595;" vertex="1" parent="1">
          <mxGeometry x="340" y="462" width="28" height="28" as="geometry" />
        </mxCell>
        <mxCell id="hE-Ajq_DNDgBt4DahEjz-24" value="" style="edgeStyle=orthogonalEdgeStyle;rounded=0;orthogonalLoop=1;jettySize=auto;html=1;" edge="1" parent="1" source="hE-Ajq_DNDgBt4DahEjz-21" target="hE-Ajq_DNDgBt4DahEjz-23">
          <mxGeometry relative="1" as="geometry" />
        </mxCell>
        <mxCell id="hE-Ajq_DNDgBt4DahEjz-27" value="" style="edgeStyle=orthogonalEdgeStyle;rounded=0;orthogonalLoop=1;jettySize=auto;html=1;" edge="1" parent="1" source="hE-Ajq_DNDgBt4DahEjz-21" target="hE-Ajq_DNDgBt4DahEjz-26">
          <mxGeometry relative="1" as="geometry" />
        </mxCell>
        <mxCell id="hE-Ajq_DNDgBt4DahEjz-21" value="&lt;font style=&quot;font-size: 14px;&quot; face=&quot;Times New Roman&quot;&gt;Classifier&lt;/font&gt;" style="ellipse;whiteSpace=wrap;html=1;" vertex="1" parent="1">
          <mxGeometry x="568" y="437" width="80" height="80" as="geometry" />
        </mxCell>
        <mxCell id="hE-Ajq_DNDgBt4DahEjz-23" value="&lt;font style=&quot;font-size: 14px;&quot; face=&quot;Times New Roman&quot;&gt;End&lt;/font&gt;" style="rhombus;whiteSpace=wrap;html=1;" vertex="1" parent="1">
          <mxGeometry x="568" y="597" width="80" height="80" as="geometry" />
        </mxCell>
        <mxCell id="hE-Ajq_DNDgBt4DahEjz-25" value="&lt;font style=&quot;font-size: 14px;&quot; face=&quot;Times New Roman&quot;&gt;0&lt;/font&gt;" style="text;html=1;align=center;verticalAlign=middle;resizable=0;points=[];autosize=1;strokeColor=none;fillColor=none;" vertex="1" parent="1">
          <mxGeometry x="608" y="542" width="25" height="29" as="geometry" />
        </mxCell>
        <mxCell id="hE-Ajq_DNDgBt4DahEjz-38" style="edgeStyle=orthogonalEdgeStyle;rounded=0;orthogonalLoop=1;jettySize=auto;html=1;entryX=0.5;entryY=1;entryDx=0;entryDy=0;" edge="1" parent="1" source="hE-Ajq_DNDgBt4DahEjz-26" target="hE-Ajq_DNDgBt4DahEjz-37">
          <mxGeometry relative="1" as="geometry" />
        </mxCell>
        <mxCell id="hE-Ajq_DNDgBt4DahEjz-26" value="&lt;font style=&quot;font-size: 14px;&quot; face=&quot;Times New Roman&quot;&gt;Reply generator&lt;/font&gt;" style="ellipse;whiteSpace=wrap;html=1;" vertex="1" parent="1">
          <mxGeometry x="568" y="277" width="80" height="80" as="geometry" />
        </mxCell>
        <mxCell id="hE-Ajq_DNDgBt4DahEjz-28" value="&lt;font style=&quot;font-size: 14px;&quot; face=&quot;Times New Roman&quot;&gt;1&lt;/font&gt;" style="text;html=1;align=center;verticalAlign=middle;resizable=0;points=[];autosize=1;strokeColor=none;fillColor=none;" vertex="1" parent="1">
          <mxGeometry x="608" y="384.5" width="25" height="29" as="geometry" />
        </mxCell>
        <mxCell id="hE-Ajq_DNDgBt4DahEjz-37" value="&lt;i&gt;&lt;font style=&quot;font-size: 14px;&quot; face=&quot;Times New Roman&quot;&gt;reply&lt;/font&gt;&lt;/i&gt;" style="shape=hexagon;perimeter=hexagonPerimeter2;whiteSpace=wrap;html=1;fixedSize=1;" vertex="1" parent="1">
          <mxGeometry x="548" y="125" width="120" height="80" as="geometry" />
        </mxCell>
        <mxCell id="hE-Ajq_DNDgBt4DahEjz-40" value="&lt;font style=&quot;font-size: 14px;&quot; face=&quot;Times New Roman&quot;&gt;Reply.json&lt;/font&gt;" style="shape=note;whiteSpace=wrap;html=1;backgroundOutline=1;darkOpacity=0.05;" vertex="1" parent="1">
          <mxGeometry x="401" y="101" width="80" height="100" as="geometry" />
        </mxCell>
        <mxCell id="hE-Ajq_DNDgBt4DahEjz-41" style="edgeStyle=orthogonalEdgeStyle;rounded=0;orthogonalLoop=1;jettySize=auto;html=1;entryX=0;entryY=0;entryDx=80;entryDy=65;entryPerimeter=0;" edge="1" parent="1" source="hE-Ajq_DNDgBt4DahEjz-37" target="hE-Ajq_DNDgBt4DahEjz-40">
          <mxGeometry relative="1" as="geometry" />
        </mxCell>
        <mxCell id="hE-Ajq_DNDgBt4DahEjz-42" style="edgeStyle=orthogonalEdgeStyle;rounded=0;orthogonalLoop=1;jettySize=auto;html=1;entryX=0;entryY=0.5;entryDx=0;entryDy=0;entryPerimeter=0;" edge="1" parent="1" source="hE-Ajq_DNDgBt4DahEjz-3" target="hE-Ajq_DNDgBt4DahEjz-40">
          <mxGeometry relative="1" as="geometry">
            <Array as="points">
              <mxPoint x="281" y="151" />
            </Array>
          </mxGeometry>
        </mxCell>
        <mxCell id="hE-Ajq_DNDgBt4DahEjz-43" style="edgeStyle=orthogonalEdgeStyle;rounded=0;orthogonalLoop=1;jettySize=auto;html=1;entryX=0.5;entryY=1;entryDx=0;entryDy=0;entryPerimeter=0;" edge="1" parent="1" source="hE-Ajq_DNDgBt4DahEjz-4" target="hE-Ajq_DNDgBt4DahEjz-40">
          <mxGeometry relative="1" as="geometry" />
        </mxCell>
        <mxCell id="hE-Ajq_DNDgBt4DahEjz-45" value="&lt;font style=&quot;font-size: 14px;&quot; face=&quot;Times New Roman&quot;&gt;&quot;RE: &quot; +&lt;/font&gt;" style="text;html=1;align=center;verticalAlign=middle;resizable=0;points=[];autosize=1;strokeColor=none;fillColor=none;" vertex="1" parent="1">
          <mxGeometry x="375" y="277" width="66" height="29" as="geometry" />
        </mxCell>
      </root>
    </mxGraphModel>
  </diagram>
</mxfile>
